# polymerge fixture: gltf-node-hierarchy (base)
v -2 -1 -1
v -2 0 -1
v -2 0 0
v -2 -1 0
v -1 -1 0
v -1 -1 -1
v -1 0 -1
v 0 -1 0
v 0 -1 -1
v 0 0 0
v -1 0 0
v 0 0 -1
v 1 0 0
v 1 0 -1
v 1 -1 0
v 1 -1 -1
v 2 -1 -1
v 2 0 -1
v 2 0 0
v 2 -1 0
v -2 1 -1
v -2 1 0
v -1 1 0
v -1 1 -1
v 0 1 -1
v 0 1 0
v 2 1 -1
v 2 1 0
v 1 1 -1
v 1 1 0
v -1 0 1
v -1 -1 1
v -2 0 1
v -2 -1 1
v -1 1 1
v -2 1 1
v -1 0 2
v -1 -1 2
v -2 0 2
v -2 -1 2
v -1 1 2
v -2 1 2
v 2 0 1
v 2 -1 1
v 1 0 1
v 1 -1 1
f 1 3 2
f 1 4 3
f 1 5 4
f 1 6 5
f 1 7 6
f 1 2 7
f 6 8 5
f 6 9 8
f 5 8 10
f 5 10 11
f 6 12 9
f 6 7 12
f 12 10 13
f 12 13 14
f 9 15 8
f 9 16 15
f 8 15 13
f 8 13 10
f 9 14 16
f 9 12 14
f 17 18 19
f 17 19 20
f 16 20 15
f 16 17 20
f 16 18 17
f 16 14 18
f 2 22 21
f 2 3 22
f 21 22 23
f 21 23 24
f 2 24 7
f 2 21 24
f 12 25 26
f 12 26 10
f 24 23 26
f 24 26 25
f 11 10 26
f 11 26 23
f 7 25 12
f 7 24 25
f 18 27 28
f 18 28 19
f 14 30 29
f 14 13 30
f 29 30 28
f 29 28 27
f 13 19 28
f 13 28 30
f 14 27 18
f 14 29 27
f 5 11 31
f 5 31 32
f 4 33 3
f 4 34 33
f 4 32 34
f 4 5 32
f 11 23 35
f 11 35 31
f 3 36 22
f 3 33 36
f 22 36 35
f 22 35 23
f 32 31 37
f 32 37 38
f 34 39 33
f 34 40 39
f 34 38 40
f 34 32 38
f 40 38 37
f 40 37 39
f 31 35 41
f 31 41 37
f 33 42 36
f 33 39 42
f 36 42 41
f 36 41 35
f 39 37 41
f 39 41 42
f 20 19 43
f 20 43 44
f 15 45 13
f 15 46 45
f 13 45 43
f 13 43 19
f 15 44 46
f 15 20 44
f 46 44 43
f 46 43 45
