# polymerge fixture: remesh-box (base)
v -2 -1.5 -1
v -2 -1 -1
v -2 -1 -0.5
v -2 -1.5 -0.5
v -2 -0.5 -1
v -2 -0.5 -0.5
v -2 -1 0
v -2 -1.5 0
v -2 -0.5 0
v -1.5 -1.5 -0.5
v -1.5 -1.5 -1
v -1.5 -1.5 0
v -1 -1.5 -0.5
v -1 -1.5 -1
v -1 -1.5 0
v -1.5 -1 -1
v -1 -1 -1
v -1.5 -0.5 -1
v -1 -0.5 -1
v -0.5 -1.5 -0.5
v -0.5 -1.5 -1
v -0.5 -1.5 0
v 0 -1.5 -0.5
v 0 -1.5 -1
v 0 -1.5 0
v -0.5 -1 -1
v 0 -1 -1
v -0.5 -0.5 -1
v 0 -0.5 -1
v 0.5 -1.5 -0.5
v 0.5 -1.5 -1
v 0.5 -1.5 0
v 1 -1.5 -0.5
v 1 -1.5 -1
v 1 -1.5 0
v 0.5 -1 -1
v 1 -1 -1
v 0.5 -0.5 -1
v 1 -0.5 -1
v 2 -1.5 -1
v 2 -1 -1
v 2 -1 -0.5
v 2 -1.5 -0.5
v 2 -0.5 -1
v 2 -0.5 -0.5
v 2 -1 0
v 2 -1.5 0
v 2 -0.5 0
v 1.5 -1.5 -0.5
v 1.5 -1.5 -1
v 1.5 -1.5 0
v 1.5 -1 -1
v 1.5 -0.5 -1
v -2 0 -1
v -2 0 -0.5
v -2 0.5 -1
v -2 0.5 -0.5
v -2 0 0
v -2 0.5 0
v -1.5 0 -1
v -1 0 -1
v -1.5 0.5 -1
v -1 0.5 -1
v -0.5 0 -1
v 0 0 -1
v -0.5 0.5 -1
v 0 0.5 -1
v 0.5 0 -1
v 1 0 -1
v 0.5 0.5 -1
v 1 0.5 -1
v 2 0 -1
v 2 0 -0.5
v 2 0.5 -1
v 2 0.5 -0.5
v 2 0 0
v 2 0.5 0
v 1.5 0 -1
v 1.5 0.5 -1
v -2 1 -1
v -2 1 -0.5
v -2 1.5 -1
v -2 1.5 -0.5
v -2 1 0
v -2 1.5 0
v -1.5 1.5 -0.5
v -1.5 1.5 -1
v -1.5 1.5 0
v -1 1.5 -0.5
v -1 1.5 -1
v -1 1.5 0
v -1.5 1 -1
v -1 1 -1
v -0.5 1.5 -0.5
v -0.5 1.5 -1
v -0.5 1.5 0
v 0 1.5 -0.5
v 0 1.5 -1
v 0 1.5 0
v -0.5 1 -1
v 0 1 -1
v 0.5 1.5 -0.5
v 0.5 1.5 -1
v 0.5 1.5 0
v 1 1.5 -0.5
v 1 1.5 -1
v 1 1.5 0
v 0.5 1 -1
v 1 1 -1
v 2 1 -1
v 2 1 -0.5
v 2 1.5 -1
v 2 1.5 -0.5
v 2 1 0
v 2 1.5 0
v 1.5 1.5 -0.5
v 1.5 1.5 -1
v 1.5 1.5 0
v 1.5 1 -1
v -2 -1 0.5
v -2 -1.5 0.5
v -2 -0.5 0.5
v -2 -1 1
v -2 -1.5 1
v -2 -0.5 1
v -1.5 -1.5 0.5
v -1.5 -1.5 1
v -1 -1.5 0.5
v -1 -1.5 1
v -1.5 -1 1
v -1 -1 1
v -1.5 -0.5 1
v -1 -0.5 1
v -0.5 -1.5 0.5
v -0.5 -1.5 1
v 0 -1.5 0.5
v 0 -1.5 1
v -0.5 -1 1
v 0 -1 1
v -0.5 -0.5 1
v 0 -0.5 1
v 0.5 -1.5 0.5
v 0.5 -1.5 1
v 1 -1.5 0.5
v 1 -1.5 1
v 0.5 -1 1
v 1 -1 1
v 0.5 -0.5 1
v 1 -0.5 1
v 2 -1 0.5
v 2 -1.5 0.5
v 2 -0.5 0.5
v 2 -1 1
v 2 -1.5 1
v 2 -0.5 1
v 1.5 -1.5 0.5
v 1.5 -1.5 1
v 1.5 -1 1
v 1.5 -0.5 1
v -2 0 0.5
v -2 0.5 0.5
v -2 0 1
v -2 0.5 1
v -1.5 0 1
v -1 0 1
v -1.5 0.5 1
v -1 0.5 1
v -0.5 0 1
v 0 0 1
v -0.5 0.5 1
v 0 0.5 1
v 0.5 0 1
v 1 0 1
v 0.5 0.5 1
v 1 0.5 1
v 2 0 0.5
v 2 0.5 0.5
v 2 0 1
v 2 0.5 1
v 1.5 0 1
v 1.5 0.5 1
v -2 1 0.5
v -2 1.5 0.5
v -2 1 1
v -2 1.5 1
v -1.5 1.5 0.5
v -1.5 1.5 1
v -1 1.5 0.5
v -1 1.5 1
v -1.5 1 1
v -1 1 1
v -0.5 1.5 0.5
v -0.5 1.5 1
v 0 1.5 0.5
v 0 1.5 1
v -0.5 1 1
v 0 1 1
v 0.5 1.5 0.5
v 0.5 1.5 1
v 1 1.5 0.5
v 1 1.5 1
v 0.5 1 1
v 1 1 1
v 2 1 0.5
v 2 1.5 0.5
v 2 1 1
v 2 1.5 1
v 1.5 1.5 0.5
v 1.5 1.5 1
v 1.5 1 1
f 1 3 2
f 1 4 3
f 2 6 5
f 2 3 6
f 4 7 3
f 4 8 7
f 3 9 6
f 3 7 9
f 1 10 4
f 1 11 10
f 4 12 8
f 4 10 12
f 11 13 10
f 11 14 13
f 10 15 12
f 10 13 15
f 1 16 11
f 1 2 16
f 11 17 14
f 11 16 17
f 2 18 16
f 2 5 18
f 16 19 17
f 16 18 19
f 14 20 13
f 14 21 20
f 13 22 15
f 13 20 22
f 21 23 20
f 21 24 23
f 20 25 22
f 20 23 25
f 14 26 21
f 14 17 26
f 21 27 24
f 21 26 27
f 17 28 26
f 17 19 28
f 26 29 27
f 26 28 29
f 24 30 23
f 24 31 30
f 23 32 25
f 23 30 32
f 31 33 30
f 31 34 33
f 30 35 32
f 30 33 35
f 24 36 31
f 24 27 36
f 31 37 34
f 31 36 37
f 27 38 36
f 27 29 38
f 36 39 37
f 36 38 39
f 40 41 42
f 40 42 43
f 41 44 45
f 41 45 42
f 43 42 46
f 43 46 47
f 42 45 48
f 42 48 46
f 34 49 33
f 34 50 49
f 33 51 35
f 33 49 51
f 50 43 49
f 50 40 43
f 49 47 51
f 49 43 47
f 34 52 50
f 34 37 52
f 50 41 40
f 50 52 41
f 37 53 52
f 37 39 53
f 52 44 41
f 52 53 44
f 5 55 54
f 5 6 55
f 54 57 56
f 54 55 57
f 6 58 55
f 6 9 58
f 55 59 57
f 55 58 59
f 5 60 18
f 5 54 60
f 18 61 19
f 18 60 61
f 54 62 60
f 54 56 62
f 60 63 61
f 60 62 63
f 19 64 28
f 19 61 64
f 28 65 29
f 28 64 65
f 61 66 64
f 61 63 66
f 64 67 65
f 64 66 67
f 29 68 38
f 29 65 68
f 38 69 39
f 38 68 69
f 65 70 68
f 65 67 70
f 68 71 69
f 68 70 71
f 44 72 73
f 44 73 45
f 72 74 75
f 72 75 73
f 45 73 76
f 45 76 48
f 73 75 77
f 73 77 76
f 39 78 53
f 39 69 78
f 53 72 44
f 53 78 72
f 69 79 78
f 69 71 79
f 78 74 72
f 78 79 74
f 56 81 80
f 56 57 81
f 80 83 82
f 80 81 83
f 57 84 81
f 57 59 84
f 81 85 83
f 81 84 85
f 82 83 86
f 82 86 87
f 83 85 88
f 83 88 86
f 87 86 89
f 87 89 90
f 86 88 91
f 86 91 89
f 56 92 62
f 56 80 92
f 62 93 63
f 62 92 93
f 80 87 92
f 80 82 87
f 92 90 93
f 92 87 90
f 90 89 94
f 90 94 95
f 89 91 96
f 89 96 94
f 95 94 97
f 95 97 98
f 94 96 99
f 94 99 97
f 63 100 66
f 63 93 100
f 66 101 67
f 66 100 101
f 93 95 100
f 93 90 95
f 100 98 101
f 100 95 98
f 98 97 102
f 98 102 103
f 97 99 104
f 97 104 102
f 103 102 105
f 103 105 106
f 102 104 107
f 102 107 105
f 67 108 70
f 67 101 108
f 70 109 71
f 70 108 109
f 101 103 108
f 101 98 103
f 108 106 109
f 108 103 106
f 74 110 111
f 74 111 75
f 110 112 113
f 110 113 111
f 75 111 114
f 75 114 77
f 111 113 115
f 111 115 114
f 106 105 116
f 106 116 117
f 105 107 118
f 105 118 116
f 117 116 113
f 117 113 112
f 116 118 115
f 116 115 113
f 71 119 79
f 71 109 119
f 79 110 74
f 79 119 110
f 109 117 119
f 109 106 117
f 119 112 110
f 119 117 112
f 8 120 7
f 8 121 120
f 7 122 9
f 7 120 122
f 121 123 120
f 121 124 123
f 120 125 122
f 120 123 125
f 8 126 121
f 8 12 126
f 121 127 124
f 121 126 127
f 12 128 126
f 12 15 128
f 126 129 127
f 126 128 129
f 124 127 130
f 124 130 123
f 127 129 131
f 127 131 130
f 123 130 132
f 123 132 125
f 130 131 133
f 130 133 132
f 15 134 128
f 15 22 134
f 128 135 129
f 128 134 135
f 22 136 134
f 22 25 136
f 134 137 135
f 134 136 137
f 129 135 138
f 129 138 131
f 135 137 139
f 135 139 138
f 131 138 140
f 131 140 133
f 138 139 141
f 138 141 140
f 25 142 136
f 25 32 142
f 136 143 137
f 136 142 143
f 32 144 142
f 32 35 144
f 142 145 143
f 142 144 145
f 137 143 146
f 137 146 139
f 143 145 147
f 143 147 146
f 139 146 148
f 139 148 141
f 146 147 149
f 146 149 148
f 47 46 150
f 47 150 151
f 46 48 152
f 46 152 150
f 151 150 153
f 151 153 154
f 150 152 155
f 150 155 153
f 35 156 144
f 35 51 156
f 144 157 145
f 144 156 157
f 51 151 156
f 51 47 151
f 156 154 157
f 156 151 154
f 145 157 158
f 145 158 147
f 157 154 153
f 157 153 158
f 147 158 159
f 147 159 149
f 158 153 155
f 158 155 159
f 9 160 58
f 9 122 160
f 58 161 59
f 58 160 161
f 122 162 160
f 122 125 162
f 160 163 161
f 160 162 163
f 125 132 164
f 125 164 162
f 132 133 165
f 132 165 164
f 162 164 166
f 162 166 163
f 164 165 167
f 164 167 166
f 133 140 168
f 133 168 165
f 140 141 169
f 140 169 168
f 165 168 170
f 165 170 167
f 168 169 171
f 168 171 170
f 141 148 172
f 141 172 169
f 148 149 173
f 148 173 172
f 169 172 174
f 169 174 171
f 172 173 175
f 172 175 174
f 48 76 176
f 48 176 152
f 76 77 177
f 76 177 176
f 152 176 178
f 152 178 155
f 176 177 179
f 176 179 178
f 149 159 180
f 149 180 173
f 159 155 178
f 159 178 180
f 173 180 181
f 173 181 175
f 180 178 179
f 180 179 181
f 59 182 84
f 59 161 182
f 84 183 85
f 84 182 183
f 161 184 182
f 161 163 184
f 182 185 183
f 182 184 185
f 85 183 186
f 85 186 88
f 183 185 187
f 183 187 186
f 88 186 188
f 88 188 91
f 186 187 189
f 186 189 188
f 163 166 190
f 163 190 184
f 166 167 191
f 166 191 190
f 184 190 187
f 184 187 185
f 190 191 189
f 190 189 187
f 91 188 192
f 91 192 96
f 188 189 193
f 188 193 192
f 96 192 194
f 96 194 99
f 192 193 195
f 192 195 194
f 167 170 196
f 167 196 191
f 170 171 197
f 170 197 196
f 191 196 193
f 191 193 189
f 196 197 195
f 196 195 193
f 99 194 198
f 99 198 104
f 194 195 199
f 194 199 198
f 104 198 200
f 104 200 107
f 198 199 201
f 198 201 200
f 171 174 202
f 171 202 197
f 174 175 203
f 174 203 202
f 197 202 199
f 197 199 195
f 202 203 201
f 202 201 199
f 77 114 204
f 77 204 177
f 114 115 205
f 114 205 204
f 177 204 206
f 177 206 179
f 204 205 207
f 204 207 206
f 107 200 208
f 107 208 118
f 200 201 209
f 200 209 208
f 118 208 205
f 118 205 115
f 208 209 207
f 208 207 205
f 175 181 210
f 175 210 203
f 181 179 206
f 181 206 210
f 203 210 209
f 203 209 201
f 210 206 207
f 210 207 209
