# polymerge fixture: cross-format-identical-obj-glb (base)
v 1.5 0 0
v 1.5 0 2.5
v 1.3858193159103394 0.5740251541137695 0
v 1.3858193159103394 0.5740251541137695 2.5
v 1.0606601238250732 1.0606601238250732 0
v 1.0606601238250732 1.0606601238250732 2.5
v 0.5740251541137695 1.3858193159103394 0
v 0.5740251541137695 1.3858193159103394 2.5
v 0 1.5 0
v 0 1.5 2.5
v -0.5740251541137695 1.3858193159103394 0
v -0.5740251541137695 1.3858193159103394 2.5
v -1.0606601238250732 1.0606601238250732 0
v -1.0606601238250732 1.0606601238250732 2.5
v -1.3858193159103394 0.5740251541137695 0
v -1.3858193159103394 0.5740251541137695 2.5
v -1.5 0 0
v -1.5 0 2.5
v -1.3858193159103394 -0.5740251541137695 0
v -1.3858193159103394 -0.5740251541137695 2.5
v -1.0606601238250732 -1.0606601238250732 0
v -1.0606601238250732 -1.0606601238250732 2.5
v -0.5740251541137695 -1.3858193159103394 0
v -0.5740251541137695 -1.3858193159103394 2.5
v 0 -1.5 0
v 0 -1.5 2.5
v 0.5740251541137695 -1.3858193159103394 0
v 0.5740251541137695 -1.3858193159103394 2.5
v 1.0606601238250732 -1.0606601238250732 0
v 1.0606601238250732 -1.0606601238250732 2.5
v 1.3858193159103394 -0.5740251541137695 0
v 1.3858193159103394 -0.5740251541137695 2.5
v 0 0 0
v 0 0 2.5
f 1 3 4
f 1 4 2
f 3 5 6
f 3 6 4
f 5 7 8
f 5 8 6
f 7 9 10
f 7 10 8
f 9 11 12
f 9 12 10
f 11 13 14
f 11 14 12
f 13 15 16
f 13 16 14
f 15 17 18
f 15 18 16
f 17 19 20
f 17 20 18
f 19 21 22
f 19 22 20
f 21 23 24
f 21 24 22
f 23 25 26
f 23 26 24
f 25 27 28
f 25 28 26
f 27 29 30
f 27 30 28
f 29 31 32
f 29 32 30
f 31 1 2
f 31 2 32
f 33 3 1
f 33 5 3
f 33 7 5
f 33 9 7
f 33 11 9
f 33 13 11
f 33 15 13
f 33 17 15
f 33 19 17
f 33 21 19
f 33 23 21
f 33 25 23
f 33 27 25
f 33 29 27
f 33 31 29
f 33 1 31
f 34 2 4
f 34 4 6
f 34 6 8
f 34 8 10
f 34 10 12
f 34 12 14
f 34 14 16
f 34 16 18
f 34 18 20
f 34 20 22
f 34 22 24
f 34 24 26
f 34 26 28
f 34 28 30
f 34 30 32
f 34 32 2
