# polymerge fixture: units-inch-to-mm (target)
v 35.400001525878906 70.80000305175781 0
v 10 -5.400000095367432 -25.399999618530273
v 10 -5.400000095367432 25.399999618530273
v -15.399999618530273 -5.400000095367432 50.79999923706055
v -15.399999618530273 45.400001525878906 0
v 35.400001525878906 -5.400000095367432 -25.399999618530273
v 35.400001525878906 45.400001525878906 25.399999618530273
v -15.399999618530273 -30.799999237060547 50.79999923706055
v 10 45.400001525878906 0
v -15.399999618530273 70.80000305175781 -25.399999618530273
v 35.400001525878906 20 -25.399999618530273
v -15.399999618530273 -30.799999237060547 25.399999618530273
v -15.399999618530273 70.80000305175781 0
v 35.400001525878906 70.80000305175781 25.399999618530273
v 35.400001525878906 70.80000305175781 -25.399999618530273
v 10 -30.799999237060547 50.79999923706055
v 10 70.80000305175781 25.399999618530273
v 35.400001525878906 -30.799999237060547 0
v -15.399999618530273 -5.400000095367432 25.399999618530273
v -15.399999618530273 20 0
v 10 20 -25.399999618530273
v 35.400001525878906 45.400001525878906 -25.399999618530273
v -15.399999618530273 -30.799999237060547 0
v 10 20 0
v 10 70.80000305175781 -25.399999618530273
v 10 -5.400000095367432 50.79999923706055
v 10 -30.799999237060547 25.399999618530273
v 35.400001525878906 -30.799999237060547 25.399999618530273
v 10 45.400001525878906 25.399999618530273
v 10 45.400001525878906 -25.399999618530273
v -15.399999618530273 -30.799999237060547 -25.399999618530273
v 35.400001525878906 -5.400000095367432 50.79999923706055
v 10 70.80000305175781 0
v -15.399999618530273 45.400001525878906 -25.399999618530273
v 35.400001525878906 45.400001525878906 0
v 35.400001525878906 -5.400000095367432 25.399999618530273
v 10 -30.799999237060547 0
v 35.400001525878906 -30.799999237060547 -25.399999618530273
v 35.400001525878906 20 0
v -15.399999618530273 20 -25.399999618530273
v 10 -5.400000095367432 0
v -15.399999618530273 -5.400000095367432 -25.399999618530273
v 35.400001525878906 -30.799999237060547 50.79999923706055
v 35.400001525878906 -5.400000095367432 0
v 10 -30.799999237060547 -25.399999618530273
v -15.399999618530273 -5.400000095367432 0
f 24 44 39
f 46 31 23
f 32 28 36
f 9 17 33
f 9 33 13
f 45 38 37
f 22 11 30
f 17 14 1
f 25 30 10
f 27 12 37
f 38 18 37
f 43 28 32
f 27 16 8
f 14 17 7
f 36 3 26
f 43 32 26
f 14 7 35
f 5 13 34
f 29 35 7
f 26 3 4
f 30 34 10
f 19 41 46
f 16 4 8
f 9 30 21
f 44 6 39
f 35 1 14
f 2 42 40
f 11 6 21
f 16 27 28
f 35 29 9
f 23 12 19
f 23 31 45
f 46 42 31
f 35 9 39
f 21 24 9
f 15 1 22
f 26 4 16
f 32 36 26
f 37 23 45
f 5 9 13
f 18 27 37
f 30 5 34
f 21 6 2
f 15 33 1
f 10 34 13
f 4 19 12
f 41 20 46
f 38 6 44
f 28 43 16
f 42 2 45
f 46 20 42
f 40 21 2
f 38 44 18
f 39 9 24
f 23 19 46
f 31 42 45
f 5 30 9
f 4 12 8
f 44 3 36
f 22 35 11
f 38 2 6
f 33 25 13
f 8 12 27
f 1 35 22
f 3 44 41
f 21 40 20
f 37 12 23
f 19 4 3
f 24 20 41
f 11 35 39
f 18 28 27
f 28 18 36
f 11 39 6
f 24 21 20
f 44 24 41
f 22 25 15
f 43 26 16
f 25 22 30
f 17 9 29
f 33 15 25
f 2 38 45
f 36 18 44
f 20 40 42
f 25 10 13
f 30 11 21
f 33 17 1
f 3 41 19
f 29 7 17
