# polymerge fixture: shuffled-faces (target)
v 5 2 0.125
v 0 5 0.25
v 0 4 0
v 4 4 0
v 3 0 0.375
v 6 3 0
v 3 7 0.125
v 6 6 0.25
v 0 3 0.25
v 1 4 0.125
v 1 2 0.125
v 4 2 0
v 2 1 0
v 3 5 0.375
v 5 6 0.125
v 3 1 0.125
v 0 0 0
v 8 6 0
v 8 5 0.25
v 3 6 0.375
v 7 3 0.125
v 2 4 0.25
v 7 1 0.125
v 1 8 0.125
v 8 8 0
v 5 3 0.375
v 6 2 0.25
v 2 3 0
v 1 7 0.375
v 4 0 0
v 2 7 0
v 8 0 0
v 7 6 0.375
v 0 8 0
v 3 4 0.375
v 1 1 0.375
v 6 4 0.25
v 5 5 0.375
v 7 5 0.125
v 7 8 0.375
v 2 0 0.25
v 5 4 0.125
v 8 4 0
v 7 0 0.375
v 5 8 0.125
v 8 3 0.25
v 0 2 0
v 2 5 0
v 1 0 0.125
v 2 6 0.25
v 8 2 0
v 1 5 0.375
v 4 5 0.25
v 4 1 0.25
v 3 3 0.125
v 7 7 0.125
v 0 1 0.25
v 3 8 0.375
v 6 7 0
v 8 1 0.25
v 4 3 0.25
v 7 4 0.375
v 4 8 0
v 0 6 0
v 8 7 0.25
v 5 7 0.375
v 2 8 0.25
v 4 6 0
v 1 6 0.125
v 2 2 0.25
v 5 1 0.375
v 6 1 0
v 6 5 0
v 0 7 0.25
v 7 2 0.375
v 5 0 0.125
v 4 7 0.25
v 6 8 0.25
v 6 0 0.25
v 3 2 0.375
v 1 3 0.375
f 61 42 4
f 48 14 20
f 3 9 10
f 68 14 53
f 7 31 50
f 80 61 55
f 80 12 61
f 16 12 80
f 52 3 10
f 71 30 76
f 71 27 1
f 38 4 42
f 39 19 18
f 70 80 55
f 39 37 62
f 61 12 26
f 42 73 38
f 60 23 44
f 12 1 26
f 56 40 59
f 20 7 50
f 75 21 27
f 21 75 46
f 50 48 20
f 34 74 24
f 69 52 50
f 2 69 64
f 56 65 25
f 23 60 51
f 47 57 11
f 37 42 26
f 56 59 8
f 20 14 68
f 58 67 31
f 73 37 39
f 51 75 23
f 81 47 11
f 48 52 10
f 36 11 57
f 39 62 19
f 8 59 15
f 33 8 73
f 75 51 46
f 31 67 29
f 59 40 78
f 54 12 16
f 29 67 24
f 55 4 35
f 54 30 71
f 58 7 63
f 72 75 27
f 48 10 22
f 39 33 73
f 68 77 20
f 2 3 52
f 66 45 77
f 31 29 69
f 50 31 69
f 63 77 45
f 15 59 66
f 28 35 22
f 35 4 53
f 6 26 1
f 36 17 49
f 9 47 81
f 19 62 43
f 16 80 13
f 63 7 77
f 69 2 52
f 13 70 36
f 44 32 60
f 11 28 81
f 25 40 56
f 69 29 64
f 13 41 16
f 33 18 65
f 5 30 54
f 70 13 80
f 29 24 74
f 72 71 76
f 36 70 11
f 65 56 33
f 15 66 68
f 1 54 71
f 53 4 38
f 16 41 5
f 6 21 62
f 13 49 41
f 6 37 26
f 6 27 21
f 14 22 35
f 81 22 10
f 22 81 28
f 78 45 66
f 66 59 78
f 15 68 53
f 23 72 79
f 27 71 72
f 29 74 64
f 61 26 42
f 11 70 28
f 44 23 79
f 39 18 33
f 35 53 14
f 75 72 23
f 6 62 37
f 27 6 1
f 66 77 68
f 77 7 20
f 38 8 15
f 55 28 70
f 62 21 43
f 48 50 52
f 76 79 72
f 36 49 13
f 15 53 38
f 55 35 28
f 12 54 1
f 8 38 73
f 31 7 58
f 36 57 17
f 43 21 46
f 8 33 56
f 42 37 73
f 16 5 54
f 4 55 61
f 9 81 10
f 48 22 14
