# polymerge fixture: remesh (target)
v 1 0 -1
v 1 0 1
v 0.9807852506637573 0.19509032368659973 -1
v 0.9807852506637573 0.19509032368659973 1
v 0.9238795042037964 0.3826834261417389 -1
v 0.9238795042037964 0.3826834261417389 1
v 0.8314695954322815 0.5555702447891235 -1
v 0.8314695954322815 0.5555702447891235 1
v 0.7071067690849304 0.7071067690849304 -1
v 0.7071067690849304 0.7071067690849304 1
v 0.5555702447891235 0.8314695954322815 -1
v 0.5555702447891235 0.8314695954322815 1
v 0.3826834261417389 0.9238795042037964 -1
v 0.3826834261417389 0.9238795042037964 1
v 0.19509032368659973 0.9807852506637573 -1
v 0.19509032368659973 0.9807852506637573 1
v 0 1 -1
v 0 1 1
v -0.19509032368659973 0.9807852506637573 -1
v -0.19509032368659973 0.9807852506637573 1
v -0.3826834261417389 0.9238795042037964 -1
v -0.3826834261417389 0.9238795042037964 1
v -0.5555702447891235 0.8314695954322815 -1
v -0.5555702447891235 0.8314695954322815 1
v -0.7071067690849304 0.7071067690849304 -1
v -0.7071067690849304 0.7071067690849304 1
v -0.8314695954322815 0.5555702447891235 -1
v -0.8314695954322815 0.5555702447891235 1
v -0.9238795042037964 0.3826834261417389 -1
v -0.9238795042037964 0.3826834261417389 1
v -0.9807852506637573 0.19509032368659973 -1
v -0.9807852506637573 0.19509032368659973 1
v -1 0 -1
v -1 0 1
v -0.9807852506637573 -0.19509032368659973 -1
v -0.9807852506637573 -0.19509032368659973 1
v -0.9238795042037964 -0.3826834261417389 -1
v -0.9238795042037964 -0.3826834261417389 1
v -0.8314695954322815 -0.5555702447891235 -1
v -0.8314695954322815 -0.5555702447891235 1
v -0.7071067690849304 -0.7071067690849304 -1
v -0.7071067690849304 -0.7071067690849304 1
v -0.5555702447891235 -0.8314695954322815 -1
v -0.5555702447891235 -0.8314695954322815 1
v -0.3826834261417389 -0.9238795042037964 -1
v -0.3826834261417389 -0.9238795042037964 1
v -0.19509032368659973 -0.9807852506637573 -1
v -0.19509032368659973 -0.9807852506637573 1
v 0 -1 -1
v 0 -1 1
v 0.19509032368659973 -0.9807852506637573 -1
v 0.19509032368659973 -0.9807852506637573 1
v 0.3826834261417389 -0.9238795042037964 -1
v 0.3826834261417389 -0.9238795042037964 1
v 0.5555702447891235 -0.8314695954322815 -1
v 0.5555702447891235 -0.8314695954322815 1
v 0.7071067690849304 -0.7071067690849304 -1
v 0.7071067690849304 -0.7071067690849304 1
v 0.8314695954322815 -0.5555702447891235 -1
v 0.8314695954322815 -0.5555702447891235 1
v 0.9238795042037964 -0.3826834261417389 -1
v 0.9238795042037964 -0.3826834261417389 1
v 0.9807852506637573 -0.19509032368659973 -1
v 0.9807852506637573 -0.19509032368659973 1
v 0 0 -1
v 0 0 1
f 1 3 4
f 1 4 2
f 3 5 6
f 3 6 4
f 5 7 8
f 5 8 6
f 7 9 10
f 7 10 8
f 9 11 12
f 9 12 10
f 11 13 14
f 11 14 12
f 13 15 16
f 13 16 14
f 15 17 18
f 15 18 16
f 17 19 20
f 17 20 18
f 19 21 22
f 19 22 20
f 21 23 24
f 21 24 22
f 23 25 26
f 23 26 24
f 25 27 28
f 25 28 26
f 27 29 30
f 27 30 28
f 29 31 32
f 29 32 30
f 31 33 34
f 31 34 32
f 33 35 36
f 33 36 34
f 35 37 38
f 35 38 36
f 37 39 40
f 37 40 38
f 39 41 42
f 39 42 40
f 41 43 44
f 41 44 42
f 43 45 46
f 43 46 44
f 45 47 48
f 45 48 46
f 47 49 50
f 47 50 48
f 49 51 52
f 49 52 50
f 51 53 54
f 51 54 52
f 53 55 56
f 53 56 54
f 55 57 58
f 55 58 56
f 57 59 60
f 57 60 58
f 59 61 62
f 59 62 60
f 61 63 64
f 61 64 62
f 63 1 2
f 63 2 64
f 65 3 1
f 65 5 3
f 65 7 5
f 65 9 7
f 65 11 9
f 65 13 11
f 65 15 13
f 65 17 15
f 65 19 17
f 65 21 19
f 65 23 21
f 65 25 23
f 65 27 25
f 65 29 27
f 65 31 29
f 65 33 31
f 65 35 33
f 65 37 35
f 65 39 37
f 65 41 39
f 65 43 41
f 65 45 43
f 65 47 45
f 65 49 47
f 65 51 49
f 65 53 51
f 65 55 53
f 65 57 55
f 65 59 57
f 65 61 59
f 65 63 61
f 65 1 63
f 66 2 4
f 66 4 6
f 66 6 8
f 66 8 10
f 66 10 12
f 66 12 14
f 66 14 16
f 66 16 18
f 66 18 20
f 66 20 22
f 66 22 24
f 66 24 26
f 66 26 28
f 66 28 30
f 66 30 32
f 66 32 34
f 66 34 36
f 66 36 38
f 66 38 40
f 66 40 42
f 66 42 44
f 66 44 46
f 66 46 48
f 66 48 50
f 66 50 52
f 66 52 54
f 66 54 56
f 66 56 58
f 66 58 60
f 66 60 62
f 66 62 64
f 66 64 2
