solid cube_with_degenerates
  facet normal 1 0 0
    outer loop
      vertex 1 -1 -1
      vertex 1 1 -1
      vertex 1 1 1
    endloop
  endfacet
  facet normal 1 0 0
    outer loop
      vertex 1 -1 -1
      vertex 1 1 1
      vertex 1 -1 1
    endloop
  endfacet
  facet normal -1 0 0
    outer loop
      vertex -1 -1 -1
      vertex -1 1 1
      vertex -1 1 -1
    endloop
  endfacet
  facet normal -1 0 0
    outer loop
      vertex -1 -1 -1
      vertex -1 -1 1
      vertex -1 1 1
    endloop
  endfacet
  facet normal 0 0 0
    outer loop
      vertex 1 -1 -1
      vertex 1 -1 -1
      vertex 1 1 -1
    endloop
  endfacet
  facet normal 0 1 0
    outer loop
      vertex -1 1 -1
      vertex -1 1 1
      vertex 1 1 1
    endloop
  endfacet
  facet normal 0 1 0
    outer loop
      vertex -1 1 -1
      vertex 1 1 1
      vertex 1 1 -1
    endloop
  endfacet
  facet normal 0 -1 0
    outer loop
      vertex -1 -1 -1
      vertex 1 -1 1
      vertex -1 -1 1
    endloop
  endfacet
  facet normal 0 -1 0
    outer loop
      vertex -1 -1 -1
      vertex 1 -1 -1
      vertex 1 -1 1
    endloop
  endfacet
  facet normal 0 0 1
    outer loop
      vertex -1 -1 1
      vertex 1 -1 1
      vertex 1 1 1
    endloop
  endfacet
  facet normal 0 0 1
    outer loop
      vertex -1 -1 1
      vertex 1 1 1
      vertex -1 1 1
    endloop
  endfacet
  facet normal 0 0 -1
    outer loop
      vertex -1 -1 -1
      vertex 1 1 -1
      vertex 1 -1 -1
    endloop
  endfacet
  facet normal 0 0 -1
    outer loop
      vertex -1 -1 -1
      vertex -1 1 -1
      vertex 1 1 -1
    endloop
  endfacet
  facet normal 0 0 0
    outer loop
      vertex 1 1 1
      vertex 1 1 1
      vertex 1 1 1
    endloop
  endfacet
endsolid cube_with_degenerates
