{
  "asset": {
    "version": "2.0",
    "generator": "polymerge fixtures generator"
  },
  "scene": 0,
  "scenes": [
    {
      "name": "fixture",
      "nodes": [
        0
      ]
    }
  ],
  "nodes": [
    {
      "name": "column",
      "translation": [
        0.5,
        -0.25,
        1
      ],
      "rotation": [
        0,
        1,
        0,
        0
      ],
      "scale": [
        2,
        2,
        2
      ],
      "mesh": 0
    }
  ],
  "meshes": [
    {
      "name": "column",
      "primitives": [
        {
          "attributes": {
            "POSITION": 0
          },
          "indices": 1,
          "mode": 4
        }
      ]
    }
  ],
  "accessors": [
    {
      "bufferView": 0,
      "componentType": 5126,
      "count": 26,
      "type": "VEC3",
      "min": [
        -1,
        -1,
        -0.5
      ],
      "max": [
        1,
        1,
        0.75
      ]
    },
    {
      "bufferView": 1,
      "componentType": 5123,
      "count": 144,
      "type": "SCALAR"
    }
  ],
  "bufferViews": [
    {
      "buffer": 0,
      "byteOffset": 0,
      "byteLength": 312,
      "target": 34962
    },
    {
      "buffer": 0,
      "byteOffset": 312,
      "byteLength": 288,
      "target": 34963
    }
  ],
  "buffers": [
    {
      "byteLength": 600,
      "uri": "data:application/octet-stream;base64,"
    }
  ]
}
