# polymerge fixture: mixed-topology-edit (target)
v 4 1 0
v 1 12 0
v 7 4 0
v 3 10 0
v 8 1 0
v 2 5 0
v 12 10 0
v 0 7 0
v 3 2 0.25
v 7 9 0
v 3 1 0
v 9 11 0
v 12 11 0
v 0 12 0
v 5 4 0
v 7 10 0
v 10 7 0
v 11 9 0
v 7 3 0
v 10 6 0
v 4 9 0
v 4 5 0
v 0 11 0
v 12 5 0
v 6 8 0
v 7 6 0
v 2 11 0
v 9 5 0
v 3 12 0
v 8 12 0
v 4 4 0
v 12 6 0
v 10 2 0
v 2 3 0.25
v 12 12 0
v 10 3 0
v 3 5 0
v 10 0 0
v 4 6 0
v 1 9 0
v 5 3 0
v 2 4 0
v 4 11 0
v 5 11 0
v 10 9 0
v 10 1 0
v 12 2 0
v 1 2 0
v 4 12 0
v 10 10 0
v 8 2 0
v 1 6 0
v 5 12 0
v 0 5 0
v 6 10 0
v 8 4 0
v 10 5 0
v 11 1 0
v 8 3 0
v 6 6 0
v 8 6 0
v 6 11 0
v 1 5 0
v 8 5 0
v 6 4 0
v 12 3 0
v 12 7 1
v 11 6 0
v 9 4 0
v 11 11 0
v 9 2 0
v 4 7 0
v 0 9 0
v 1 1 0
v 0 6 0
v 2 1 0
v 10 4 0
v 5 10 0
v 9 0 0
v 12 1 0
v 9 3 0
v 5 2 0
v 7 7 0
v 1 11 0
v 1 8 0
v 3 6 0
v 6 7 0
v 4 0 0
v 10 12 0
v 11 3 0
v 1 7 0
v 4 3 0
v 4 10 0
v 2 8 0
v 1 0 0
v 7 5 0
v 0 3 0
v 9 7 0
v 9 10 0
v 12 9 0
v 2 12 0
v 1 4 0
v 3 0 0
v 0 2 0
v 12 8 0
v 2 9 0
v 0 10 0
v 5 7 0
v 0 0 0
v 2 7 0
v 11 8 0
v 7 2 0
v 0 4 0
v 2 10 0
v 7 11 0
v 12 5 1
v 8 10 0
v 5 8 0
v 7 1 0
v 7 8 0
v 0 8 0
v 3 3 0.25
v 4 8 0
v 6 1 0
v 0 1 0
v 11 10 0
v 2 2 0.25
v 11 5 0
v 5 6 0
v 12 4 0
v 6 9 0
v 6 0 0
v 5 0 0
v 9 1 0
v 12 4 1
v 2 0 0
v 6 2 0
v 11 7 0
v 1 3 0
v 10 11 0
v 3 9 0
v 11 4 0
v 11 2 0
v 6 5 0
v 11 0 0
v 12 7 0
v 8 7 0
v 6 3 0
v 7 12 0
v 2 6 0
v 5 9 0
v 8 0 0
v 11 12 0
v 6 12 0
v 5 1 0
v 3 7 0
v 12 6 1
v 8 11 0
v 12 0 0
v 9 12 0
v 5 5 0
v 9 6 0
v 10 8 0
v 1 10 0
v 3 8 0
v 3 11 0
v 4 2 0
v 7 0 0
v 3 4 0
f 17 162 20
f 6 37 86
f 59 112 51
f 43 93 44
f 111 17 138
f 164 40 114
f 148 65 41
f 100 111 105
f 27 166 29
f 89 12 140
f 17 111 163
f 2 84 101
f 126 50 45
f 12 158 117
f 72 86 39
f 79 134 152
f 24 157 116
f 44 53 43
f 107 73 164
f 18 7 126
f 142 128 77
f 114 27 164
f 125 74 48
f 113 97 102
f 93 43 4
f 167 11 1
f 99 50 140
f 83 26 147
f 78 151 55
f 57 128 68
f 134 79 46
f 31 15 161
f 76 9 127
f 107 84 23
f 33 90 36
f 48 127 34
f 122 92 31
f 155 1 88
f 146 105 138
f 131 10 16
f 5 152 134
f 140 12 99
f 75 54 52
f 92 122 9
f 22 161 129
f 39 86 37
f 93 4 141
f 102 139 42
f 83 60 26
f 169 122 31
f 20 138 17
f 120 87 83
f 157 24 32
f 34 42 139
f 54 63 52
f 55 16 115
f 81 77 69
f 95 136 76
f 112 59 19
f 78 21 151
f 104 48 139
f 86 150 6
f 161 15 144
f 32 68 128
f 46 38 58
f 4 166 114
f 44 78 62
f 37 42 169
f 167 41 92
f 160 158 12
f 27 101 84
f 166 43 49
f 156 110 150
f 107 164 84
f 55 115 62
f 53 49 43
f 151 131 55
f 158 160 30
f 124 155 133
f 62 154 44
f 71 5 134
f 155 124 137
f 80 47 58
f 16 55 131
f 56 3 19
f 96 144 65
f 162 98 61
f 79 38 46
f 138 68 146
f 34 127 122
f 60 87 129
f 86 72 156
f 21 141 165
f 16 117 158
f 121 40 73
f 119 132 168
f 60 83 87
f 4 43 166
f 91 52 110
f 135 130 116
f 19 148 137
f 136 11 76
f 151 21 123
f 143 90 33
f 132 119 124
f 18 163 111
f 10 25 120
f 5 71 51
f 68 138 20
f 24 128 142
f 162 28 20
f 23 84 2
f 25 10 131
f 148 41 82
f 124 119 112
f 64 61 96
f 102 97 139
f 145 80 58
f 51 112 119
f 56 59 69
f 96 26 144
f 31 92 15
f 143 47 66
f 28 64 56
f 11 136 103
f 15 65 144
f 63 54 113
f 130 142 90
f 86 156 150
f 22 169 31
f 140 70 153
f 123 118 151
f 20 28 57
f 64 162 61
f 149 62 115
f 26 60 144
f 91 85 8
f 42 34 169
f 58 47 143
f 141 94 165
f 18 111 100
f 141 106 94
f 3 96 65
f 123 165 156
f 91 8 75
f 25 87 120
f 102 42 6
f 112 19 137
f 141 4 106
f 155 82 1
f 105 111 138
f 70 140 50
f 74 76 127
f 56 69 28
f 96 61 26
f 109 95 74
f 128 24 32
f 82 155 137
f 71 134 33
f 91 75 52
f 40 164 73
f 121 8 85
f 119 5 51
f 126 13 70
f 11 103 1
f 22 39 37
f 90 142 36
f 6 63 102
f 129 39 22
f 52 150 110
f 12 89 160
f 127 48 74
f 81 69 59
f 82 41 167
f 108 39 129
f 127 9 122
f 82 137 148
f 18 100 7
f 87 25 108
f 66 130 90
f 45 163 18
f 155 88 133
f 169 34 122
f 156 165 110
f 151 118 131
f 93 141 21
f 112 137 124
f 148 3 65
f 50 126 70
f 37 6 42
f 161 60 129
f 78 93 21
f 6 150 63
f 123 156 72
f 19 59 56
f 64 28 162
f 92 9 167
f 139 97 104
f 27 84 164
f 96 3 64
f 61 147 26
f 148 19 3
f 115 158 30
f 11 9 76
f 157 32 67
f 13 126 7
f 145 159 80
f 113 102 63
f 40 106 114
f 114 166 27
f 48 34 139
f 142 77 36
f 81 59 51
f 117 99 12
f 94 91 110
f 166 49 29
f 45 18 126
f 101 27 29
f 53 44 154
f 162 17 98
f 57 28 69
f 87 108 129
f 57 77 128
f 22 31 161
f 94 106 85
f 81 51 71
f 15 92 41
f 85 106 40
f 37 169 22
f 16 158 115
f 24 142 130
f 168 152 5
f 118 25 131
f 108 25 118
f 46 58 143
f 62 78 55
f 145 58 38
f 67 32 146
f 91 94 85
f 146 68 32
f 62 149 154
f 21 165 123
f 125 48 104
f 3 56 64
f 24 116 130
f 143 66 90
f 132 124 133
f 13 35 70
f 165 94 110
f 36 81 71
f 20 57 68
f 5 119 168
f 39 108 72
f 23 2 14
f 153 70 35
f 77 81 36
f 134 46 33
f 147 61 98
f 123 72 118
f 63 150 52
f 115 30 149
f 143 33 46
f 72 108 118
f 78 44 93
f 41 65 15
f 85 40 121
f 114 106 4
f 57 69 77
f 82 167 1
f 1 103 88
f 153 89 140
f 76 74 95
f 74 125 109
f 33 36 71
f 60 161 144
f 11 167 9
