# polymerge fixture: moved-part (base)
v -2 -1 -1
v -2 0 -1
v -2 0 0
v -2 -1 0
v -1 -1 0
v -1 -1 -1
v -1 0 -1
v 0 -1 0
v 0 -1 -1
v 0 0 0
v -1 0 0
v 0 0 -1
v 1 0 0
v 1 0 -1
v 1 -1 0
v 1 -1 -1
v 2 -1 -1
v 2 0 -1
v 2 0 0
v 2 -1 0
v -2 1 -1
v -2 1 0
v -1 1 0
v -1 1 -1
v 0 1 -1
v 0 1 0
v 2 1 -1
v 2 1 0
v 1 1 -1
v 1 1 0
v -1 0 1
v -1 -1 1
v -2 0 1
v -2 -1 1
v -1 1 1
v -2 1 1
v -1 0 2
v -1 -1 2
v -2 0 2
v -2 -1 2
v -1 1 2
v -2 1 2
v 2 0 1
v 2 -1 1
v 1 0 1
v 1 -1 1
v 5 -0.5 -0.5
v 5 0 -0.5
v 5 0 0
v 5 -0.5 0
v 5.5 -0.5 0
v 5.5 -0.5 -0.5
v 5.5 0 -0.5
v 6 -0.5 0
v 6 -0.5 -0.5
v 6 0 0
v 5.5 0 0
v 6 0 -0.5
v 6.5 0 0
v 6.5 0 -0.5
v 6.5 -0.5 0
v 6.5 -0.5 -0.5
v 7 -0.5 -0.5
v 7 0 -0.5
v 7 0 0
v 7 -0.5 0
v 5 0.5 -0.5
v 5 0.5 0
v 5.5 0.5 0
v 5.5 0.5 -0.5
v 6 0.5 -0.5
v 6 0.5 0
v 7 0.5 -0.5
v 7 0.5 0
v 6.5 0.5 -0.5
v 6.5 0.5 0
v 5.5 0 0.5
v 5.5 -0.5 0.5
v 5 0 0.5
v 5 -0.5 0.5
v 5.5 0.5 0.5
v 5 0.5 0.5
v 5.5 0 1
v 5.5 -0.5 1
v 5 0 1
v 5 -0.5 1
v 5.5 0.5 1
v 5 0.5 1
v 7 0 0.5
v 7 -0.5 0.5
v 6.5 0 0.5
v 6.5 -0.5 0.5
f 1 3 2
f 1 4 3
f 1 5 4
f 1 6 5
f 1 7 6
f 1 2 7
f 6 8 5
f 6 9 8
f 5 8 10
f 5 10 11
f 6 12 9
f 6 7 12
f 12 10 13
f 12 13 14
f 9 15 8
f 9 16 15
f 8 15 13
f 8 13 10
f 9 14 16
f 9 12 14
f 17 18 19
f 17 19 20
f 16 20 15
f 16 17 20
f 16 18 17
f 16 14 18
f 2 22 21
f 2 3 22
f 21 22 23
f 21 23 24
f 2 24 7
f 2 21 24
f 12 25 26
f 12 26 10
f 24 23 26
f 24 26 25
f 11 10 26
f 11 26 23
f 7 25 12
f 7 24 25
f 18 27 28
f 18 28 19
f 14 30 29
f 14 13 30
f 29 30 28
f 29 28 27
f 13 19 28
f 13 28 30
f 14 27 18
f 14 29 27
f 5 11 31
f 5 31 32
f 4 33 3
f 4 34 33
f 4 32 34
f 4 5 32
f 11 23 35
f 11 35 31
f 3 36 22
f 3 33 36
f 22 36 35
f 22 35 23
f 32 31 37
f 32 37 38
f 34 39 33
f 34 40 39
f 34 38 40
f 34 32 38
f 40 38 37
f 40 37 39
f 31 35 41
f 31 41 37
f 33 42 36
f 33 39 42
f 36 42 41
f 36 41 35
f 39 37 41
f 39 41 42
f 20 19 43
f 20 43 44
f 15 45 13
f 15 46 45
f 13 45 43
f 13 43 19
f 15 44 46
f 15 20 44
f 46 44 43
f 46 43 45
f 47 49 48
f 47 50 49
f 47 51 50
f 47 52 51
f 47 53 52
f 47 48 53
f 52 54 51
f 52 55 54
f 51 54 56
f 51 56 57
f 52 58 55
f 52 53 58
f 58 56 59
f 58 59 60
f 55 61 54
f 55 62 61
f 54 61 59
f 54 59 56
f 55 60 62
f 55 58 60
f 63 64 65
f 63 65 66
f 62 66 61
f 62 63 66
f 62 64 63
f 62 60 64
f 48 68 67
f 48 49 68
f 67 68 69
f 67 69 70
f 48 70 53
f 48 67 70
f 58 71 72
f 58 72 56
f 70 69 72
f 70 72 71
f 57 56 72
f 57 72 69
f 53 71 58
f 53 70 71
f 64 73 74
f 64 74 65
f 60 76 75
f 60 59 76
f 75 76 74
f 75 74 73
f 59 65 74
f 59 74 76
f 60 73 64
f 60 75 73
f 51 57 77
f 51 77 78
f 50 79 49
f 50 80 79
f 50 78 80
f 50 51 78
f 57 69 81
f 57 81 77
f 49 82 68
f 49 79 82
f 68 82 81
f 68 81 69
f 78 77 83
f 78 83 84
f 80 85 79
f 80 86 85
f 80 84 86
f 80 78 84
f 86 84 83
f 86 83 85
f 77 81 87
f 77 87 83
f 79 88 82
f 79 85 88
f 82 88 87
f 82 87 81
f 85 83 87
f 85 87 88
f 66 65 89
f 66 89 90
f 61 91 59
f 61 92 91
f 59 91 89
f 59 89 65
f 61 90 92
f 61 66 90
f 92 90 89
f 92 89 91
