# polymerge fixture: moved-part (target)
v 0 1 0
v 6.65466833114624 2.3792922496795654 0.5
v -2 -1 1
v 5.288642883300781 2.7453176975250244 1.5
v 6.15466833114624 3.2453176975250244 0.5
v 5.355629920959473 1.6292922496795654 1
v 6.40466833114624 2.812304973602295 0.5
v 5.105629920959473 2.062304973602295 1.5
v -1 -1 2
v -2 -1 0
v 5.355629920959473 1.6292922496795654 0.5
v -1 0 0
v 7.087680816650391 2.6292922496795654 0
v 1 1 -1
v -1 -1 -1
v 5.538642883300781 2.312304973602295 0
v 6.837680816650391 3.062304973602295 0
v -1 1 2
v 7.087680816650391 2.6292922496795654 0.5
v 5.288642883300781 2.7453176975250244 0
v 5.288642883300781 2.7453176975250244 0.5
v 6.65466833114624 2.3792922496795654 0
v 5.788642883300781 1.8792922496795654 0
v 6.837680816650391 3.062304973602295 0.5
v 2 0 -1
v 1 0 0
v 0 -1 -1
v 0 0 -1
v -2 -1 -1
v 6.587680816650391 3.4953176975250244 0.5
v 1 0 -1
v 5.355629920959473 1.6292922496795654 1.5
v -1 0 -1
v 5.538642883300781 2.312304973602295 0.5
v -2 1 0
v -2 0 0
v 5.971655368804932 2.562304973602295 0.5
v 1 0 1
v -1 -1 0
v -2 0 -1
v 5.788642883300781 1.8792922496795654 1.5
v 5.105629920959473 2.062304973602295 0.5
v -2 1 1
v -2 1 2
v 5.355629920959473 1.6292922496795654 0
v 5.538642883300781 2.312304973602295 1
v 6.15466833114624 3.2453176975250244 0
v 5.788642883300781 1.8792922496795654 0.5
v 6.65466833114624 2.3792922496795654 1
v 6.221655368804932 2.1292922496795654 0.5
v 5.105629920959473 2.062304973602295 1
v 4.855629920959473 2.4953176975250244 0.5
v 2 1 0
v 2 -1 0
v 5.538642883300781 2.312304973602295 1.5
v 1 -1 1
v -1 1 1
v 0 -1 0
v 5.971655368804932 2.562304973602295 0
v 1 -1 0
v 4.855629920959473 2.4953176975250244 1.5
v 5.105629920959473 2.062304973602295 0
v -1 0 2
v 7.087680816650391 2.6292922496795654 1
v 6.587680816650391 3.4953176975250244 0
v -1 1 0
v 5.721655368804932 2.9953176975250244 0
v 4.855629920959473 2.4953176975250244 1
v 2 0 1
v -1 -1 1
v 2 -1 1
v 5.288642883300781 2.7453176975250244 1
v -1 1 -1
v 0 1 -1
v 1 -1 -1
v 4.855629920959473 2.4953176975250244 0
v -2 1 -1
v 2 0 0
v 5.721655368804932 2.9953176975250244 0.5
v 2 1 -1
v -2 0 2
v 2 -1 -1
v -2 -1 2
v 6.40466833114624 2.812304973602295 1
v 6.837680816650391 3.062304973602295 1
v 0 0 0
v 6.40466833114624 2.812304973602295 0
v 1 1 0
v -2 0 1
v -1 0 1
v 6.221655368804932 2.1292922496795654 0
v 5.788642883300781 1.8792922496795654 1
f 35 77 40
f 16 67 59
f 28 74 1
f 79 34 37
f 52 42 68
f 92 48 46
f 80 53 25
f 56 71 69
f 22 2 91
f 43 57 35
f 85 7 84
f 10 89 36
f 6 41 32
f 19 13 24
f 39 70 10
f 16 23 45
f 88 14 31
f 18 43 44
f 72 52 68
f 9 63 83
f 9 3 70
f 76 21 20
f 82 75 25
f 26 88 31
f 60 26 58
f 40 29 36
f 19 64 2
f 31 75 27
f 61 8 4
f 38 56 69
f 14 80 31
f 53 80 14
f 16 20 67
f 51 11 6
f 60 71 56
f 78 54 82
f 47 30 65
f 73 74 33
f 63 18 81
f 28 31 27
f 25 53 78
f 62 52 76
f 5 87 7
f 50 7 37
f 59 7 87
f 79 21 34
f 12 57 90
f 26 53 88
f 86 1 12
f 37 7 59
f 34 72 46
f 3 81 89
f 46 55 92
f 10 36 29
f 35 36 43
f 25 78 82
f 32 41 55
f 34 48 37
f 17 30 24
f 86 58 26
f 15 27 58
f 92 55 41
f 1 66 12
f 7 24 30
f 9 83 3
f 28 86 26
f 59 23 16
f 19 85 64
f 31 25 75
f 6 32 8
f 67 79 59
f 4 55 46
f 40 73 33
f 40 33 29
f 16 62 20
f 36 89 43
f 81 44 89
f 27 15 28
f 11 92 6
f 42 52 62
f 4 68 61
f 8 55 4
f 77 73 40
f 43 18 57
f 87 17 22
f 2 22 19
f 48 11 45
f 90 18 63
f 84 2 49
f 58 39 15
f 2 50 91
f 87 22 91
f 17 24 13
f 32 55 8
f 63 81 83
f 69 54 78
f 57 18 90
f 14 88 53
f 2 7 50
f 81 3 83
f 11 51 42
f 46 48 34
f 33 28 15
f 60 56 38
f 62 76 20
f 28 1 86
f 75 54 60
f 91 59 87
f 24 85 19
f 44 81 18
f 52 72 21
f 87 5 47
f 54 75 82
f 62 16 45
f 63 70 90
f 47 65 87
f 60 27 75
f 54 71 60
f 39 29 15
f 45 42 62
f 42 51 68
f 20 21 79
f 8 51 6
f 21 76 52
f 10 3 89
f 46 72 4
f 37 48 50
f 45 11 42
f 51 61 68
f 33 74 28
f 77 66 73
f 23 91 50
f 70 3 10
f 27 60 58
f 15 29 33
f 59 79 37
f 68 4 72
f 78 26 69
f 30 17 65
f 66 77 35
f 64 49 2
f 71 54 69
f 48 92 11
f 21 72 34
f 79 67 20
f 2 84 7
f 61 51 8
f 78 53 26
f 86 39 58
f 66 35 57
f 86 12 39
f 85 49 64
f 22 13 19
f 69 26 38
f 91 23 59
f 70 63 9
f 90 70 39
f 60 38 26
f 6 92 41
f 5 30 47
f 65 17 87
f 12 90 39
f 7 85 24
f 35 40 36
f 73 1 74
f 1 73 66
f 25 31 80
f 30 5 7
f 48 45 23
f 84 49 85
f 66 57 12
f 89 44 43
f 31 28 26
f 29 39 10
f 22 17 13
f 50 48 23
